<svg xmlns="http://www.w3.org/2000/svg" width="420" height="420" fill="none">
	<g clip-path="url(#a)">
		<path fill="#111"
					d="M210 0C94.02 0 0 94.02 0 210s94.02 210 210 210 210-94.02 210-210S325.98 0 210 0Zm142.556 292.468c-4.948-42.533-23.345-65.306-23.345-65.306 9.274 33.21 8.05 65.547 2.941 92.926a166.723 166.723 0 0 1-37.144 30.431c8.109-32.167 6.995-66.481 6.995-66.481 1.525 10.347 7.718 32.538 13.991 39.352-5.741-48.335 15.797-63.249.602-128.194 12.053 6.353 26.797 7.789 38.278.462-10.949 1.124-18.507-5.751-26.716-13.077-17.152-15.316-25.693-32.357-43.126-38.329 11.933-.903 19.38-2.951 22.461-9.795-18.286 2.82-36.231.501-52.58-8.16-8.2-4.336-19.14-8.561-29.427-10.147-4.205-.311-13.429-1.475-25.031 0 0 0 8.16-1.244 14.764-3.462 9.344-18.838 14.251-41.4 13.158-62.245-3.282 10.97-6.614 23.665-12.435 34.013-5.812 10.347-15.246 22.913-25.332 26.506 2.669-11.502 3.051-24.198 1.064-35.84-2.168 12.937-7.989 26.947-20.806 34.796 7.768.692 13.419 2.639 13.419 2.639-7.156-1.084-13.148-.963-17.072-.642-.03.02-.06.03-.1.05-.482 0-.954.06-1.425.091-1.616.17-2.7.311-3.152.451-11.06 3.402-13.98 5.56-16.098 9.806-2.73 5.49-12.024 12.665-21.227 16.399 6.885 1.365 14.021-.733 14.021-.733-4.587 3.001-21.899 3.884-21.899 3.884-1.717 0-3.543-.803-4.296-2.348-.04-.08-.08-.171-.11-.261-.412-1.124-2.018-1.797-2.78-.873-6.504 7.868-15.215 14-29.999 19.149 6.182 13.108 16.128 28.112 26.988 33.562-.934-7.467-4.446-15.858-2.79-22.391 1.776 3.121 6.754 10.939 12.786 12.103 0 0-3.844-8.209-1.506-12.766 26.276-.973 44.351 1.907 69.472-12.395 1.796 14.653-10.879 29.868-20.565 34.907 0 0 9.254-6.865 9.836-12.576-9.805 1.315-23.344 2.027-32.477 14.191-8.16 10.87-11.181 11.893-16.139 12.044-.191 0-.391 0-.582-.01-4.476-1.907-7.798-8.993-7.798-8.993-2.65 4.798-.703 12.335.652 16.299.271.934.602 1.817.994 2.64 3.834 8.149 12.927 11.562 21.217 18.366-2.158-11.421 7.677-21.568 18.296-26.305 10.618-4.737 22.09-8.029 33.692-8.731 8.229-.492 17.483-2.379 23.886-7.799 1.305-1.154 4.486-4.375 6.564-9.765.05-.14.11-.271.15-.411 1.375-3.744 2.188-8.491 1.486-14.272 0 0 3.412 9.685 2.007 18.407 15.697 19.48 15.356 32.899 15.466 46.949-2.077-12.414-5.881-18.988-11.12-21.166 0 0 .251 35.077-19.902 58.271 1.907-3.212-4.416-17.122-4.416-17.122-8.049 48.746-77.471 100.293-78.695 101.487a164.477 164.477 0 0 1-15.546-10.147c76.155-40.878 87.406-99.841 87.406-99.841-27.831 41.079-74.409 65.216-111.052 78.685-27.208-29.467-43.828-68.859-43.828-112.126 0-91.331 74.037-165.358 165.358-165.358 91.32 0 165.358 74.038 165.358 165.358 0 30.591-8.32 59.234-22.802 83.813l.01.03ZM168.108 119.382c-3.593 6.494-7.828 12.194-21.668 14.774 1.084-3.985 5.339-6.815 9.635-8.461 4.717-1.807 8.049-2.288 12.033-6.323v.01Zm-50.151 34.826c-1.014 1.586-1.014-.923-5.089-.642-1.405.1-2.719 1.184-3.803 1.957-.572.411-1.325-.201-1.024-.843.612-1.305 1.315-2.559 2.308-3.583 1.767-1.827 4.677-2.82 6.915-1.044a3.114 3.114 0 0 1 .693 4.155Z"/>
	</g>
	<defs>
		<clipPath id="a">
			<path fill="#fff" d="M0 0h420v420H0z"/>
		</clipPath>
	</defs>
</svg>