<svg xmlns="http://www.w3.org/2000/svg" width="544" height="570" fill="none">
	<g clip-path="url(#a)">
		<path fill="#111"
					d="M272 75C156.02 75 62 169.02 62 285s94.02 210 210 210 210-94.02 210-210S387.98 75 272 75Zm142.556 292.468c-4.948-42.533-23.345-65.306-23.345-65.306 9.274 33.21 8.05 65.547 2.941 92.926a166.723 166.723 0 0 1-37.144 30.431c8.109-32.167 6.995-66.481 6.995-66.481 1.525 10.347 7.718 32.538 13.991 39.352-5.741-48.335 15.797-63.249.602-128.194 12.053 6.353 26.797 7.789 38.278.462-10.949 1.124-18.507-5.751-26.716-13.077-17.152-15.316-25.693-32.357-43.126-38.329 11.933-.903 19.38-2.951 22.461-9.795-18.286 2.82-36.231.501-52.58-8.16-8.2-4.336-19.14-8.561-29.427-10.147-4.205-.311-13.429-1.475-25.031 0 0 0 8.16-1.244 14.764-3.462 9.344-18.838 14.251-41.4 13.158-62.245-3.282 10.969-6.614 23.665-12.435 34.013-5.812 10.347-15.246 22.913-25.332 26.506 2.669-11.502 3.051-24.198 1.064-35.84-2.168 12.937-7.989 26.947-20.806 34.796 7.768.692 13.419 2.639 13.419 2.639-7.156-1.084-13.148-.963-17.072-.642-.03.02-.06.03-.1.05-.482 0-.954.06-1.425.091-1.616.17-2.7.311-3.152.451-11.06 3.402-13.98 5.56-16.098 9.806-2.73 5.49-12.024 12.665-21.227 16.399 6.885 1.365 14.021-.733 14.021-.733-4.587 3.001-21.899 3.884-21.899 3.884-1.717 0-3.543-.803-4.296-2.348-.04-.08-.08-.171-.11-.261-.412-1.124-2.018-1.797-2.78-.873-6.504 7.868-15.215 14-29.999 19.149 6.182 13.108 16.128 28.112 26.988 33.562-.934-7.467-4.446-15.858-2.79-22.391 1.776 3.121 6.754 10.939 12.786 12.103 0 0-3.844-8.209-1.506-12.766 26.276-.973 44.351 1.907 69.472-12.395 1.796 14.653-10.879 29.868-20.565 34.907 0 0 9.254-6.865 9.836-12.576-9.805 1.315-23.344 2.027-32.477 14.191-8.16 10.87-11.181 11.893-16.139 12.044-.191 0-.391 0-.582-.01-4.476-1.907-7.798-8.993-7.798-8.993-2.65 4.798-.703 12.335.652 16.299.271.934.602 1.817.994 2.64 3.834 8.149 12.927 11.562 21.217 18.366-2.158-11.421 7.677-21.568 18.296-26.305 10.618-4.737 22.09-8.029 33.692-8.731 8.229-.492 17.483-2.379 23.886-7.799 1.305-1.154 4.486-4.375 6.564-9.765.05-.14.11-.271.15-.411 1.375-3.744 2.188-8.491 1.486-14.272 0 0 3.412 9.685 2.007 18.407 15.697 19.48 15.356 32.899 15.466 46.949-2.077-12.414-5.881-18.988-11.12-21.166 0 0 .251 35.077-19.902 58.271 1.907-3.212-4.416-17.122-4.416-17.122-8.049 48.746-77.471 100.293-78.695 101.487a164.477 164.477 0 0 1-15.546-10.147c76.155-40.878 87.406-99.841 87.406-99.841-27.831 41.079-74.409 65.216-111.052 78.685-27.208-29.467-43.828-68.859-43.828-112.126 0-91.331 74.037-165.358 165.358-165.358 91.32 0 165.358 74.038 165.358 165.358 0 30.591-8.32 59.234-22.802 83.813l.01.03ZM230.108 194.382c-3.593 6.494-7.828 12.194-21.668 14.774 1.084-3.985 5.339-6.815 9.635-8.461 4.717-1.807 8.049-2.288 12.033-6.323v.01Zm-50.151 34.826c-1.014 1.586-1.014-.923-5.089-.642-1.405.1-2.719 1.184-3.803 1.957-.572.411-1.325-.201-1.024-.843.612-1.305 1.315-2.559 2.308-3.583 1.767-1.827 4.677-2.82 6.915-1.044a3.114 3.114 0 0 1 .693 4.155Z"/>
	</g>
	<path fill="#111"
				d="m51.291 131.664 6.312-7.635 31.678-13.303-12.283-10.155 6.312-7.635 37.644 31.123-6.312 7.634-17.269-14.277-31.605 13.363 29.48 24.373-6.313 7.635-37.644-31.123ZM103.81 75.89l7.838-6.159 30.181 38.403-7.838 6.16-30.181-38.403Zm29.517-22.038 16.018-8.004c4.677-2.337 8.992-3.864 12.942-4.58 3.951-.717 7.524-.697 10.719.059 3.205.727 6.028 2.158 8.468 4.293 2.45 2.106 4.508 4.827 6.175 8.163 1.583 3.168 2.5 6.378 2.751 9.63.241 3.233-.272 6.4-1.54 9.503-1.278 3.083-3.361 6.045-6.25 8.886-2.898 2.822-6.686 5.402-11.364 7.74l-16.088 8.003-21.831-43.694Zm36.202 26.94c2.647-1.322 4.799-2.817 6.458-4.484 1.65-1.686 2.824-3.484 3.524-5.394.718-1.918.97-3.93.756-6.037-.214-2.105-.865-4.248-1.955-6.429-1.071-2.143-2.37-3.904-3.897-5.284-1.537-1.398-3.275-2.358-5.212-2.88-1.929-.55-4.053-.653-6.373-.31-2.32.345-4.803 1.178-7.45 2.5l-9.337 4.665 14.149 28.318 9.337-4.665Zm34.055-57.294 9.772-1.626 2.093 12.577 29.963-4.984-2.092-12.578 9.802-1.63 8.016 48.181-9.803 1.631-4.533-27.25-29.964 4.984 4.534 27.25-9.772 1.626-8.016-48.181Zm80.245-8.688 9.818 1.32-3.586 26.667c-.294 2.188-.257 4.18.111 5.974.372 1.774 1.066 3.328 2.085 4.663 1.039 1.338 2.395 2.435 4.067 3.29 1.674.835 3.678 1.41 6.011 1.723 2.313.311 4.387.285 6.222-.078 1.859-.38 3.456-1.08 4.792-2.099 1.355-1.016 2.446-2.33 3.273-3.942.829-1.634 1.391-3.545 1.685-5.733l3.586-26.666 9.818 1.32-3.744 27.843c-.428 3.18-1.353 5.998-2.777 8.455-1.423 2.458-3.282 4.478-5.576 6.061-2.294 1.584-4.996 2.681-8.105 3.293-3.088.615-6.532.667-10.332.156-3.799-.51-7.117-1.472-9.954-2.884-2.817-1.408-5.122-3.18-6.916-5.312-1.794-2.133-3.053-4.573-3.777-7.319-.724-2.746-.872-5.709-.445-8.889l3.744-27.843Zm57.517 55.073a5.57 5.57 0 0 1 1.269-2.034 5.648 5.648 0 0 1 2.07-1.31c.799-.31 1.682-.455 2.65-.436.969.018 1.992.222 3.069.613 1.077.39 1.994.888 2.749 1.494.755.606 1.331 1.28 1.727 2.022.423.729.663 1.503.721 2.321a5.3 5.3 0 0 1-.298 2.385 5.491 5.491 0 0 1-1.309 2.052 5.391 5.391 0 0 1-2.03 1.292c-.772.297-1.642.436-2.61.417-.976.001-2.002-.193-3.08-.583-1.077-.39-1.99-.898-2.738-1.524-.756-.606-1.345-1.274-1.767-2.003a5.732 5.732 0 0 1-.761-2.303 5.779 5.779 0 0 1 .338-2.403Zm38.586-6.975c1.862-2.889 4.143-5.236 6.843-7.04 2.711-1.822 5.707-2.99 8.987-3.503 3.28-.513 6.779-.327 10.497.557 3.735.896 7.564 2.608 11.487 5.136a45.895 45.895 0 0 1 4.103 2.98 40.375 40.375 0 0 1 3.789 3.408 37.186 37.186 0 0 1 3.292 3.832 29.354 29.354 0 0 1 2.682 4.146l-7.898 3.832a17.933 17.933 0 0 0-1.715-2.704 23.76 23.76 0 0 0-2.383-2.763 31.54 31.54 0 0 0-2.875-2.634 35.993 35.993 0 0 0-3.218-2.334c-2.591-1.67-5.117-2.827-7.577-3.471-2.449-.662-4.758-.848-6.926-.56-2.157.27-4.134.991-5.931 2.163-1.796 1.172-3.326 2.739-4.59 4.7-1.31 2.031-2.126 4.144-2.451 6.34a15.034 15.034 0 0 0 .456 6.502c.629 2.14 1.724 4.21 3.286 6.208 1.574 1.98 3.604 3.773 6.091 5.375 1.978 1.276 3.932 2.225 5.86 2.848 1.94.606 3.787.892 5.544.86 1.756-.034 3.392-.38 4.907-1.039 1.527-.677 2.881-1.663 4.063-2.958l-14.342-9.244 4.419-6.855 21.828 14.068-.017.027.043-.01c-.916 2.384-2.106 4.517-3.567 6.4a21.255 21.255 0 0 1-4.989 4.741 20.91 20.91 0 0 1-6.162 2.87c-2.244.635-4.612.906-7.104.812-2.481-.112-5.061-.61-7.738-1.493-2.667-.9-5.366-2.231-8.097-3.992-3.818-2.46-6.88-5.227-9.187-8.3-2.29-3.063-3.859-6.243-4.707-9.54a23.685 23.685 0 0 1-.432-9.945c.579-3.32 1.822-6.46 3.729-9.42Zm61.256 42.772c2.649-2.191 5.533-3.737 8.652-4.64 3.136-.916 6.344-1.122 9.626-.619 3.281.504 6.56 1.74 9.836 3.708 3.289 1.984 6.421 4.774 9.394 8.371a45.428 45.428 0 0 1 3.009 4.08 40.065 40.065 0 0 1 2.58 4.396 37.102 37.102 0 0 1 1.979 4.649 29.325 29.325 0 0 1 1.301 4.762l-8.687 1.263a17.946 17.946 0 0 0-.816-3.096 23.69 23.69 0 0 0-1.436-3.355 31.363 31.363 0 0 0-1.943-3.38 35.874 35.874 0 0 0-2.36-3.198c-1.965-2.377-4.022-4.244-6.172-5.602-2.134-1.371-4.278-2.248-6.432-2.63a13.86 13.86 0 0 0-6.307.268c-2.067.573-3.999 1.603-5.798 3.09-1.862 1.54-3.28 3.307-4.254 5.301a15.033 15.033 0 0 0-1.533 6.336c-.048 2.23.37 4.533 1.254 6.911.9 2.364 2.293 4.686 4.178 6.966 1.5 1.815 3.075 3.31 4.724 4.488 1.665 1.164 3.34 1.996 5.024 2.496 1.684.5 3.347.665 4.991.496 1.66-.183 3.249-.713 4.768-1.59l-10.872-13.15 6.286-5.197 16.547 20.014-.024.02.044.004c-1.595 1.994-3.374 3.668-5.337 5.021a21.266 21.266 0 0 1-6.19 3.008 20.85 20.85 0 0 1-6.741.87c-2.331-.073-4.67-.531-7.017-1.375-2.331-.858-4.638-2.112-6.923-3.764-2.269-1.666-4.439-3.751-6.51-6.255-2.894-3.501-4.975-7.065-6.244-10.692-1.256-3.611-1.789-7.117-1.6-10.517a23.717 23.717 0 0 1 2.598-9.609c1.557-2.99 3.691-5.606 6.405-7.849ZM39.728 358.56c3.178-1.415 6.405-2.133 9.68-2.154 3.293-.029 6.452.64 9.478 2.007 3.053 1.377 5.889 3.445 8.507 6.202 2.626 2.776 4.863 6.238 6.71 10.387 1.618 3.636 2.73 7.132 3.334 10.488.632 3.368.777 6.69.434 9.967l-8.707-1.119c.166-1.009.22-2.117.163-3.322-.05-1.187-.2-2.42-.45-3.7a32.432 32.432 0 0 0-.931-3.861 31.95 31.95 0 0 0-1.386-3.727c-1.288-2.893-2.797-5.311-4.528-7.254-1.713-1.952-3.563-3.42-5.552-4.405a14.034 14.034 0 0 0-6.172-1.494c-2.126-.011-4.255.457-6.387 1.406-2.208.983-4.048 2.304-5.522 3.963-1.473 1.659-2.534 3.579-3.182 5.76-.621 2.192-.804 4.6-.549 7.222.283 2.634 1.068 5.397 2.356 8.29A29.362 29.362 0 0 0 39.05 397a35.494 35.494 0 0 0 2.436 3.397 36.041 36.041 0 0 0 2.762 2.978 33.013 33.013 0 0 0 2.94 2.454l-4.997 7.218c-2.645-1.741-5.127-4.012-7.445-6.811-2.298-2.808-4.248-6.011-5.85-9.608-2.04-4.587-3.243-8.875-3.604-12.864-.343-3.998.006-7.62 1.047-10.865 1.06-3.254 2.736-6.098 5.028-8.532 2.32-2.423 5.106-4.359 8.36-5.807Zm24.942 54.415c2.884-2.299 5.944-3.874 9.183-4.725 3.239-.851 6.473-1.006 9.703-.465 3.26.545 6.427 1.777 9.502 3.694 3.088 1.934 5.93 4.53 8.529 7.787 2.585 3.241 4.477 6.582 5.676 10.023 1.199 3.441 1.695 6.803 1.488 10.085-.177 3.286-1.04 6.413-2.59 9.382-1.55 2.968-3.766 5.602-6.65 7.901-2.898 2.312-5.983 3.907-9.254 4.784-3.255.864-6.52 1.03-9.796.498-3.263-.515-6.454-1.727-9.575-3.635-3.105-1.921-5.95-4.502-8.535-7.743-2.598-3.258-4.488-6.613-5.67-10.067-1.154-3.451-1.625-6.832-1.416-10.144.223-3.295 1.118-6.434 2.684-9.415 1.582-2.994 3.823-5.648 6.722-7.96Zm6.178 7.745c-1.97 1.571-3.467 3.338-4.488 5.298-1.008 1.977-1.574 4.04-1.698 6.191-.094 2.154.24 4.326 1.001 6.517.774 2.207 1.967 4.32 3.578 6.34 1.61 2.019 3.4 3.644 5.366 4.873 1.98 1.246 4.023 2.054 6.131 2.425 2.124.358 4.262.265 6.414-.278 2.151-.544 4.212-1.602 6.183-3.173 1.97-1.572 3.452-3.34 4.444-5.304.992-1.964 1.525-4.001 1.6-6.113.09-2.124-.267-4.277-1.074-6.458-.794-2.165-1.997-4.257-3.607-6.277-1.611-2.019-3.39-3.665-5.337-4.937-1.934-1.255-3.954-2.083-6.058-2.483-2.075-.397-4.18-.33-6.316.201-2.122.546-4.168 1.606-6.139 3.178Zm51.147 24.139 8.051 5.771 4.048 24.819 24.804-4.136 8.052 5.772-28.458 39.698-8.051-5.772 20.465-28.548-24.386 3.552-4.467-24.235-20.464 28.548-8.052-5.771 28.458-39.698Zm53.012 35.804 24.136 8.973c3.515 1.307 6.42 2.82 8.714 4.54 2.295 1.72 4.023 3.618 5.184 5.695a13.853 13.853 0 0 1 1.83 6.648c.07 2.382-.378 4.872-1.343 7.469-.908 2.441-2.157 4.544-3.746 6.309-1.59 1.765-3.517 3.093-5.783 3.985-2.238.879-4.806 1.269-7.703 1.17-2.889-.119-6.092-.832-9.607-2.138l-14.898-5.573-4.519 12.156-9.286-3.452 17.021-45.782Zm14.853 34.661c1.757.653 3.366 1.018 4.827 1.095 1.488.064 2.812-.122 3.974-.557a7.604 7.604 0 0 0 3.037-2.071c.863-.946 1.545-2.093 2.046-3.44 1.009-2.715.905-5.154-.313-7.318-1.191-2.177-3.544-3.918-7.059-5.225l-15.085-5.608-6.512 17.516 15.085 5.608Zm30.292 7.156c.373-3.668 1.389-6.957 3.046-9.867 1.657-2.91 3.809-5.329 6.456-7.259 2.669-1.948 5.764-3.35 9.286-4.206 3.542-.854 7.386-1.07 11.531-.648 4.125.419 7.836 1.404 11.133 2.954 3.297 1.551 6.047 3.548 8.248 5.991 2.225 2.426 3.855 5.23 4.892 8.414 1.037 3.184 1.369 6.61.996 10.279-.376 3.689-1.394 7.009-3.056 9.96-1.659 2.931-3.824 5.38-6.496 7.349-2.65 1.971-5.749 3.404-9.295 4.3-3.545.874-7.379 1.102-11.504.682-4.145-.422-7.865-1.418-11.161-2.989-3.272-1.59-6.018-3.618-8.238-6.084-2.2-2.465-3.817-5.299-4.852-8.504-1.033-3.225-1.361-6.683-.986-10.372Zm9.855 1.003c-.255 2.508-.039 4.813.648 6.914.707 2.103 1.786 3.951 3.236 5.543 1.473 1.574 3.259 2.856 5.357 3.844 2.119.99 4.464 1.616 7.034 1.878 2.57.262 4.982.12 7.236-.426 2.275-.543 4.282-1.438 6.022-2.685 1.741-1.268 3.17-2.86 4.287-4.778 1.116-1.918 1.802-4.131 2.058-6.638.255-2.508.028-4.803-.682-6.886-.709-2.083-1.792-3.889-3.249-5.419-1.455-1.551-3.243-2.801-5.367-3.751-2.102-.946-4.438-1.551-7.008-1.812-2.57-.262-4.991-.142-7.262.36-2.25.504-4.254 1.368-6.012 2.592-1.735 1.206-3.16 2.757-4.274 4.654-1.094 1.899-1.768 4.102-2.024 6.61Zm53.358-20.031 9.776-1.604 32.617 10.798-2.581-15.727 9.775-1.604 7.91 48.199-9.775 1.604-3.629-22.111-32.601-10.705 6.194 37.745-9.775 1.604-7.911-48.199Zm57.826-11.197 38.186-16.489 3.444 7.976-29.091 12.562 3.865 8.951 25.763-11.125 3.233 7.488-25.763 11.125 5.389 12.48 29.694-12.822 3.431 7.947-38.788 16.749-19.363-44.842Zm44.714-19.805 7.871-6.016 33.861-5.819-9.677-12.663 7.87-6.016 29.66 38.808-7.871 6.016-13.606-17.803-33.804 5.894 23.226 30.391-7.87 6.015-29.66-38.807Zm61.725-43.18-11.243 14.097-6.792-5.417 28.664-35.938 6.792 5.417-11.244 14.097 31.394 25.039-6.177 7.745-31.394-25.04Zm46.352-20.306a65.067 65.067 0 0 0 4.706-3.76 47.123 47.123 0 0 0 4.21-4.33 46.613 46.613 0 0 0 3.694-5.081 51.981 51.981 0 0 0 3.267-6.101c1.22-2.672 2.088-5.024 2.603-7.056.497-2.041.71-3.787.64-5.239-.08-1.479-.425-2.679-1.036-3.599a5.54 5.54 0 0 0-2.409-2.096c-1.611-.736-3.188-.643-4.731.279-1.562.913-2.983 2.771-4.264 5.576a34.368 34.368 0 0 0-1.522 4.012 190.997 190.997 0 0 0-1.384 4.384 377.355 377.355 0 0 1-1.342 4.368 37.337 37.337 0 0 1-1.512 3.913 23.418 23.418 0 0 1-3.389 5.392c-1.342 1.586-2.85 2.855-4.522 3.81a12.61 12.61 0 0 1-5.369 1.602c-1.916.133-3.897-.268-5.944-1.203a15.191 15.191 0 0 1-3.39-2.131 13.359 13.359 0 0 1-2.684-3.15c-.762-1.241-1.343-2.651-1.744-4.231-.42-1.589-.598-3.354-.537-5.295.071-1.961.406-4.098 1.004-6.413.589-2.342 1.511-4.887 2.765-7.635a58.573 58.573 0 0 1 3.08-5.842 62.85 62.85 0 0 1 3.584-5.441 58.724 58.724 0 0 1 3.967-4.853 48.144 48.144 0 0 1 4.094-4.074l5.473 7.274a43.888 43.888 0 0 0-3.35 3.349 49.465 49.465 0 0 0-3.286 3.962 53.74 53.74 0 0 0-3.029 4.526 45.367 45.367 0 0 0-2.649 4.974c-1.133 2.482-1.888 4.611-2.263 6.387-.367 1.756-.482 3.238-.346 4.445.116 1.198.439 2.147.967 2.846.518.672 1.118 1.164 1.8 1.475 1.327.606 2.689.506 4.087-.298 1.379-.813 2.627-2.442 3.743-4.887a36.34 36.34 0 0 0 1.346-3.474c.436-1.358.89-2.777 1.359-4.257.479-1.499.985-3.009 1.519-4.528a46.105 46.105 0 0 1 1.732-4.397c1.194-2.615 2.544-4.793 4.048-6.534 1.514-1.759 3.131-3.07 4.854-3.933a11.508 11.508 0 0 1 5.366-1.294c1.855 0 3.74.436 5.654 1.31 2.558 1.169 4.569 2.808 6.033 4.919 1.453 2.084 2.37 4.541 2.75 7.371.369 2.802.208 5.912-.482 9.33-.709 3.409-1.929 7.009-3.66 10.799a60.125 60.125 0 0 1-3.832 7.114 60.773 60.773 0 0 1-4.448 6.282 62.084 62.084 0 0 1-4.931 5.307 52.513 52.513 0 0 1-5.177 4.266l-5.113-8.14Z"/>
	<defs>
		<clipPath id="a">
			<path fill="#fff" d="M62 75h420v420H62z"/>
		</clipPath>
	</defs>
</svg>